<svg width="512" height="118" viewBox="0 0 512 118" fill="none" xmlns="http://www.w3.org/2000/svg">
<path d="M21.6163 95V24.0807H36.8133L66.987 66.4781V24.0807H84.8269V95H69.5198L39.3461 52.7127V95H21.6163Z" fill="black"/>
<path d="M124.007 96.1012C114.903 96.1012 107.598 93.8621 102.092 89.3837C96.586 84.832 93.8329 78.0043 93.8329 68.9008C93.8329 60.6049 96.1088 53.9975 100.661 49.0787C105.212 44.1598 112.04 41.7004 121.143 41.7004C129.439 41.7004 135.863 43.8295 140.415 48.0876C144.967 52.3456 147.243 58.0721 147.243 65.2668V74.6272H110.241C111.049 78.0777 112.921 80.5005 115.858 81.8954C118.868 83.2168 122.942 83.8776 128.081 83.8776C130.944 83.8776 133.844 83.6206 136.781 83.1067C139.791 82.5928 142.287 81.9321 144.269 81.1245V92.6874C141.773 93.8621 138.8 94.7063 135.349 95.2202C131.899 95.8076 128.118 96.1012 124.007 96.1012ZM110.241 64.3858H131.825V62.0732C131.825 59.5036 131.055 57.4847 129.513 56.0164C127.971 54.4747 125.365 53.7038 121.694 53.7038C117.436 53.7038 114.463 54.5848 112.774 56.3468C111.086 58.0353 110.241 60.715 110.241 64.3858Z" fill="black"/>
<path d="M148.559 95L168.601 68.4603L149.33 42.8016H168.601L178.292 55.9063L187.983 42.8016H207.255L187.983 68.4603L208.025 95H188.644L178.292 81.2346L167.941 95H148.559Z" fill="black"/>
<path d="M235.16 96.1012C228.7 96.1012 223.928 94.4494 220.844 91.1457C217.834 87.842 216.329 83.2902 216.329 77.4904V56.2367H209.282V42.8016H216.329V31.8995L234.059 27.1642V42.8016H246.723L245.953 56.2367H234.059V76.2791C234.059 78.7752 234.683 80.5372 235.931 81.565C237.179 82.5194 239.051 82.9966 241.548 82.9966C243.677 82.9966 245.842 82.6295 248.045 81.8954V93.8988C244.594 95.3671 240.3 96.1012 235.16 96.1012Z" fill="black"/>
<path d="M269.67 95V37.736H248.857V24.0807H308.213V37.736H287.4V95H269.67Z" fill="black"/>
<path d="M403.933 96.1012C399.748 96.1012 395.784 95.8076 392.04 95.2202C388.296 94.6329 385.322 93.8988 383.12 93.0178V79.4726C385.689 80.5739 388.663 81.4182 392.04 82.0055C395.417 82.5928 398.427 82.8865 401.07 82.8865C404.227 82.8865 406.503 82.7396 407.898 82.446C409.366 82.1523 410.1 81.3447 410.1 80.0233C410.1 78.555 408.925 77.4537 406.576 76.7196C404.227 75.9854 400.997 74.9209 396.885 73.526C392.113 71.8374 388.479 69.8919 385.983 67.6895C383.56 65.4136 382.349 62.0732 382.349 57.6683C382.349 52.5292 384.258 48.6015 388.075 45.8851C391.966 43.0953 398.133 41.7004 406.576 41.7004C409.88 41.7004 413.147 41.9574 416.377 42.4713C419.607 42.9852 422.25 43.5725 424.306 44.2332V57.5581C422.25 56.6037 419.901 55.9063 417.258 55.4658C414.615 55.0253 412.229 54.8051 410.1 54.8051C407.384 54.8051 405.071 54.9886 403.162 55.3557C401.327 55.6493 400.409 56.4202 400.409 57.6683C400.409 59.0632 401.437 60.0543 403.493 60.6416C405.548 61.1555 408.522 62.0365 412.413 63.2845C416.524 64.5326 419.717 65.8908 421.993 67.3591C424.269 68.754 425.884 70.4425 426.839 72.4248C427.793 74.407 428.27 76.9031 428.27 79.9131C428.27 85.1256 426.215 89.1268 422.103 91.9166C417.992 94.7063 411.935 96.1012 403.933 96.1012Z" fill="black"/>
<path d="M437.247 95V20.777H454.977V59.5404L472.046 42.8016H492.199L471.275 64.4959L493.41 95H474.579L460.153 73.8564L454.977 78.922V95H437.247Z" fill="black"/>
<path fill-rule="evenodd" clip-rule="evenodd" d="M345.542 37.2075L373.109 84.3145C375.628 88.6192 372.479 94 367.441 94H312.308C307.27 94 304.121 88.6191 306.64 84.3144L334.206 37.2075C336.725 32.9028 343.023 32.9029 345.542 37.2075ZM341.42 39.5555C340.733 38.3815 339.016 38.3815 338.329 39.5555L310.762 86.6625C310.075 87.8365 310.934 89.304 312.308 89.304H367.441C368.815 89.304 369.674 87.8365 368.987 86.6625L341.42 39.5555Z" fill="black"/>
<path fill-rule="evenodd" clip-rule="evenodd" d="M318.753 67.4381C318.753 66.1414 319.818 65.0901 321.133 65.0901H360.401C361.715 65.0901 362.781 66.1414 362.781 67.4381C362.781 68.7349 361.715 69.7861 360.401 69.7861H321.133C319.818 69.7861 318.753 68.7349 318.753 67.4381Z" fill="black"/>
</svg>
